<svg width="24" height="24" viewBox="0 0 24 24" fill="none" xmlns="http://www.w3.org/2000/svg">
<path d="M12 24C18.6274 24 24 18.6274 24 12C24 5.37258 18.6274 0 12 0C5.37258 0 0 5.37258 0 12C0 18.6274 5.37258 24 12 24Z" fill="white"/>
<path d="M23.2547 16.1719C23.7375 14.8734 24 13.4672 24 12C24 10.5328 23.7375 9.12656 23.2547 7.82812H0.745312C0.2625 9.12656 0 10.5328 0 12C0 13.4672 0.2625 14.8734 0.745312 16.1719H12H23.2547Z" fill="#3949E7"/>
<path d="M11.9999 24C17.1608 24 21.5577 20.7422 23.2546 16.1719H0.745178C2.44205 20.7422 6.83893 24 11.9999 24Z" fill="#F22E27"/>
<path d="M23.5 12C23.5 18.3513 18.3513 23.5 12 23.5C5.64872 23.5 0.5 18.3513 0.5 12C0.5 5.64873 5.64873 0.5 12 0.5C18.3513 0.5 23.5 5.64872 23.5 12Z" stroke="#D4D6D7"/>
</svg>
